<svg xmlns="http://www.w3.org/2000/svg" viewBox="0 0 176.36 42.46"><defs><style>.cls-1{opacity:0.6;}.cls-2,.cls-3,.cls-4,.cls-5{fill:none;}.cls-2,.cls-3,.cls-4{stroke:#b4b4b5;}.cls-2,.cls-3,.cls-5{stroke-linecap:round;stroke-linejoin:round;}.cls-2,.cls-3{stroke-width:0.5px;}.cls-3{stroke-dasharray:2.46 2.46;}.cls-4,.cls-6{stroke-miterlimit:10;}.cls-4{stroke-width:0.6px;}.cls-5,.cls-6{stroke:#dbdcdc;stroke-width:0.75px;}.cls-6{fill:#dbdcdc;}.cls-10,.cls-7{fill:#fff;}.cls-10,.cls-8,.cls-9{font-size:6.81px;font-family:Gotham-Medium, Gotham;font-weight:500;}.cls-8,.cls-9{fill:#b4b4b5;}.cls-10,.cls-8{letter-spacing:-0.02em;}.cls-9{letter-spacing:-0.03em;}</style></defs><g id="圖層_2" data-name="圖層 2"><g id="指标"><g class="cls-1"><line class="cls-2" x1="175.98" y1="19.41" x2="174.75" y2="19.41"/><line class="cls-3" x1="172.3" y1="19.41" x2="16.37" y2="19.41"/><line class="cls-2" x1="15.14" y1="19.41" x2="13.91" y2="19.41"/></g><g class="cls-1"><line class="cls-2" x1="175.98" y1="5.45" x2="174.75" y2="5.45"/><line class="cls-3" x1="172.3" y1="5.45" x2="16.37" y2="5.45"/><line class="cls-2" x1="15.14" y1="5.45" x2="13.91" y2="5.45"/></g><path class="cls-4" d="M31.82,8.23c7.1,4.42,12.24,8.84,19.34,13.27,5.36-2.56,13.76-4.95,19.12-7.51,7.21,1.51,11.89,3,19.11,4.54,5-3,14.11-5.68,19.11-8.7,7.57,4,11.55,7.48,19.12,11.44,6-4.89,13.06-9.9,19.11-14.79"/><line class="cls-5" x1="13.91" y1="0.38" x2="13.91" y2="33.37"/><line class="cls-5" x1="175.98" y1="33.37" x2="13.91" y2="33.37"/><circle class="cls-6" cx="32.05" cy="8.35" r="1.48"/><circle class="cls-6" cx="51.16" cy="21.5" r="1.48"/><circle class="cls-6" cx="70.28" cy="13.99" r="1.48"/><circle class="cls-6" cx="89.39" cy="18.53" r="1.48"/><circle class="cls-6" cx="108.5" cy="9.83" r="1.48"/><circle class="cls-6" cx="127.62" cy="21.27" r="1.48"/><circle class="cls-7" cx="146.73" cy="6.48" r="1.48"/><text class="cls-8" transform="translate(28.41 41.28)">10</text><text class="cls-8" transform="translate(4.47 41.28)">0</text><text class="cls-9" transform="translate(0.46 21.72)">20</text><text class="cls-9" transform="translate(0 7.76)">40</text><text class="cls-8" transform="translate(48.64 41.28)">11</text><text class="cls-8" transform="translate(67.01 41.28)">12</text><text class="cls-8" transform="translate(86.11 41.28)">13</text><text class="cls-8" transform="translate(105.01 41.28)">14</text><text class="cls-8" transform="translate(124.32 41.28)">15</text><text class="cls-10" transform="translate(143.32 41.28)">16</text></g></g></svg>