<svg xmlns="http://www.w3.org/2000/svg" viewBox="0 0 176.07 43.29"><defs><style>.cls-1,.cls-2{fill:none;}.cls-1,.cls-3{stroke:#dbdcdc;stroke-width:0.75px;}.cls-1,.cls-2,.cls-3{stroke-linecap:round;stroke-linejoin:round;}.cls-2{stroke:#b4b4b5;stroke-width:0.5px;stroke-dasharray:2.46;opacity:0.6;}.cls-3{fill:#dbdcdc;}.cls-4,.cls-8,.cls-9{font-size:6.94px;fill:#b4b4b5;font-family:Gotham-Medium, Gotham;font-weight:500;}.cls-4{letter-spacing:-0.04em;}.cls-5,.cls-8{letter-spacing:-0.02em;}.cls-6{letter-spacing:-0.07em;}.cls-7,.cls-9{letter-spacing:-0.03em;}</style></defs><g id="圖層_2" data-name="圖層 2"><g id="指标"><line class="cls-1" x1="32.88" y1="13.04" x2="55.79" y2="21.92"/><path class="cls-1" d="M55.79,21.92c5.46-2.61,14-5.05,19.49-7.66,7.36,1.54,12.13,3.09,19.49,4.63,5.11-3.09,14.39-5.79,19.5-8.87,7.71,4,11.77,7.63,19.49,11.67,6.17-5,13.32-10.1,19.49-15.09"/><line class="cls-1" x1="13.62" y1="0.38" x2="13.62" y2="34.03"/><line class="cls-1" x1="175.69" y1="34.03" x2="13.62" y2="34.03"/><line class="cls-2" x1="175.69" y1="19.79" x2="13.62" y2="19.79"/><line class="cls-2" x1="175.69" y1="5.55" x2="13.62" y2="5.55"/><circle class="cls-3" cx="32.88" cy="13.04" r="1.51"/><circle class="cls-3" cx="75.28" cy="14.26" r="1.51"/><circle class="cls-3" cx="94.77" cy="18.89" r="1.51"/><circle class="cls-3" cx="114.27" cy="10.02" r="1.51"/><circle class="cls-3" cx="133.76" cy="21.69" r="1.51"/><circle class="cls-3" cx="153.25" cy="6.6" r="1.51"/><text class="cls-4" transform="translate(27.69 42.1)">9<tspan class="cls-5" x="4.31" y="0">.9</tspan></text><text class="cls-4" transform="translate(45.98 42.1)">9<tspan class="cls-6" x="4.31" y="0">.</tspan><tspan class="cls-7" x="5.66" y="0">10</tspan></text><text class="cls-4" transform="translate(66.98 42.1)">9<tspan class="cls-6" x="4.31" y="0">.</tspan><tspan class="cls-7" x="5.66" y="0">11</tspan></text><text class="cls-4" transform="translate(85.7 42.1)">9<tspan class="cls-6" x="4.31" y="0">.</tspan><tspan class="cls-7" x="5.66" y="0">13</tspan></text><text class="cls-4" transform="translate(105.96 42.1)">9<tspan class="cls-6" x="4.31" y="0">.</tspan><tspan class="cls-7" x="5.66" y="0">14</tspan></text><text class="cls-4" transform="translate(126.66 42.1)">9<tspan class="cls-6" x="4.31" y="0">.</tspan><tspan class="cls-7" x="5.66" y="0">15</tspan></text><text class="cls-4" transform="translate(146.94 42.1)">9<tspan class="cls-6" x="4.31" y="0">.</tspan><tspan class="cls-7" x="5.66" y="0">16</tspan></text><text class="cls-8" transform="translate(0 22.14)">20</text><text class="cls-9" transform="translate(4.08 42.1)">0</text><text class="cls-8" transform="translate(0.71 7.9)">25</text><circle class="cls-3" cx="55.79" cy="21.92" r="1.51"/></g></g></svg>