<?xml version="1.0" encoding="UTF-8"?>
<svg id="_圖層_2" data-name="圖層 2" xmlns="http://www.w3.org/2000/svg" viewBox="0 0 485.6 400.46">
  <defs>
    <style>
      .cls-1 {
        letter-spacing: -.04em;
      }

      .cls-2 {
        letter-spacing: -.04em;
      }

      .cls-3 {
        letter-spacing: -.03em;
      }

      .cls-4 {
        letter-spacing: -.03em;
      }

      .cls-5, .cls-6, .cls-7 {
        fill: #ffe800;
      }

      .cls-8 {
        letter-spacing: -.07em;
      }

      .cls-9 {
        letter-spacing: -.03em;
      }

      .cls-10 {
        letter-spacing: -.03em;
      }

      .cls-11 {
        font-size: 18px;
      }

      .cls-11, .cls-12, .cls-13, .cls-7, .cls-14 {
        font-family: Gotham-Medium, Gotham;
        font-weight: 500;
      }

      .cls-11, .cls-13 {
        fill: #b4b4b5;
      }

      .cls-15 {
        letter-spacing: -.03em;
      }

      .cls-16 {
        letter-spacing: -.02em;
      }

      .cls-17 {
        letter-spacing: -.03em;
      }

      .cls-18 {
        letter-spacing: -.02em;
      }

      .cls-12 {
        fill: #231f1e;
        font-size: 22.63px;
        letter-spacing: -.02em;
      }

      .cls-19 {
        letter-spacing: -.11em;
      }

      .cls-6 {
        opacity: .2;
      }

      .cls-13 {
        font-size: 20px;
        letter-spacing: -.03em;
      }

      .cls-20 {
        letter-spacing: -.05em;
      }

      .cls-21 {
        letter-spacing: -.04em;
      }

      .cls-22 {
        letter-spacing: -.05em;
      }

      .cls-23 {
        letter-spacing: -.05em;
      }

      .cls-24 {
        letter-spacing: -.03em;
      }

      .cls-7 {
        font-size: 12px;
      }

      .cls-14 {
        fill: #fff;
        font-size: 15px;
      }

      .cls-25 {
        letter-spacing: -.12em;
      }

      .cls-26 {
        letter-spacing: -.03em;
      }

      .cls-27 {
        fill: none;
        stroke: #ffe800;
        stroke-miterlimit: 10;
        stroke-width: 1.96px;
      }
    </style>
  </defs>
  <g id="_指标" data-name="指标">
    <g>
      <rect class="cls-27" x=".98" y=".98" width="483.64" height="398.5" rx="61.77" ry="61.77"/>
      <g>
        <g>
          <rect class="cls-5" x="45.4" y="343.3" width="111.91" height="36.31" rx="18.15" ry="18.15"/>
          <text class="cls-12" transform="translate(63.73 370.06)"><tspan x="0" y="0">PUT IN</tspan></text>
        </g>
        <text class="cls-13" transform="translate(50.71 216.39)"><tspan x="0" y="0">TIPS</tspan></text>
        <rect class="cls-6" x="44.91" y="49.64" width="395.78" height="25.81" rx="12.9" ry="12.9"/>
        <rect class="cls-6" x="44.91" y="133.28" width="395.78" height="25.81" rx="12.9" ry="12.9"/>
        <rect class="cls-5" x="45.4" y="133.28" width="278.24" height="25.81" rx="12.9" ry="12.9"/>
        <rect class="cls-5" x="45.4" y="49.64" width="212.36" height="25.81" rx="12.9" ry="12.9"/>
        <text class="cls-11" transform="translate(50.71 36.15)"><tspan class="cls-25" x="0" y="0">WA</tspan><tspan class="cls-17" x="30.17" y="0">TER</tspan></text>
        <text class="cls-11" transform="translate(50.71 119.94)"><tspan class="cls-10" x="0" y="0">F</tspan><tspan class="cls-17" x="11.25" y="0">OR</tspan><tspan class="cls-8" x="38.66" y="0">A</tspan><tspan class="cls-17" x="51.66" y="0">GE</tspan></text>
        <text class="cls-14" transform="translate(411.56 95.86)"><tspan x="0" y="0">5L</tspan></text>
        <text class="cls-14" transform="translate(394.87 178.92)"><tspan x="0" y="0">10</tspan><tspan class="cls-18" x="16.8" y="0">k</tspan><tspan x="25.16" y="0">g</tspan></text>
        <text class="cls-7" transform="translate(53.33 242.32)"><tspan class="cls-16" x="0" y="0">Beef c</tspan><tspan class="cls-9" x="36.32" y="0">a</tspan><tspan class="cls-15" x="43.01" y="0">ttles should drink </tspan><tspan class="cls-4" x="145.71" y="0">a</tspan><tspan class="cls-15" x="152.4" y="0">t lea</tspan><tspan class="cls-26" x="177.14" y="0">s</tspan><tspan class="cls-16" x="182.72" y="0">t 20</tspan><tspan class="cls-23" x="206.08" y="0">k</tspan><tspan class="cls-16" x="212.47" y="0">g of </tspan><tspan class="cls-21" x="238.6" y="0">w</tspan><tspan class="cls-4" x="248.39" y="0">a</tspan><tspan class="cls-2" x="255.08" y="0">t</tspan><tspan class="cls-16" x="259.52" y="0">er per d</tspan><tspan class="cls-21" x="304.81" y="0">a</tspan><tspan class="cls-19" x="311.31" y="0">y</tspan><tspan class="cls-16" x="317.14" y="0">. </tspan><tspan class="cls-24" x="323.37" y="0">T</tspan><tspan class="cls-15" x="330.77" y="0">he daily </tspan><tspan class="cls-20" x="0" y="16">w</tspan><tspan class="cls-9" x="9.79" y="16">a</tspan><tspan class="cls-1" x="16.48" y="16">t</tspan><tspan class="cls-16" x="20.92" y="16">er inta</tspan><tspan class="cls-22" x="57.46" y="16">k</tspan><tspan class="cls-16" x="63.84" y="16">e of beef c</tspan><tspan class="cls-3" x="124.88" y="16">a</tspan><tspan class="cls-16" x="131.56" y="16">ttle is based on the </tspan><tspan class="cls-22" x="244.52" y="16">w</tspan><tspan class="cls-16" x="254.25" y="16">eight of the dry m</tspan><tspan class="cls-9" x="357.88" y="16">a</tspan><tspan class="cls-16" x="364.56" y="16">t</tspan><tspan class="cls-2" x="369.18" y="16">t</tspan><tspan class="cls-16" x="373.62" y="16">er </tspan><tspan class="cls-26" x="0" y="32">f</tspan><tspan class="cls-16" x="4.09" y="32">ed, ensuring th</tspan><tspan class="cls-9" x="89.66" y="32">a</tspan><tspan class="cls-15" x="96.35" y="32">t the daily </tspan><tspan class="cls-20" x="157.17" y="32">w</tspan><tspan class="cls-9" x="166.96" y="32">a</tspan><tspan class="cls-2" x="173.65" y="32">t</tspan><tspan class="cls-15" x="178.09" y="32">er inta</tspan><tspan class="cls-22" x="214.63" y="32">k</tspan><tspan class="cls-16" x="221.01" y="32">e is 4 or 5 times the amount </tspan><tspan class="cls-16" x="0" y="48">of dry m</tspan><tspan class="cls-9" x="48.74" y="48">a</tspan><tspan class="cls-16" x="55.43" y="48">t</tspan><tspan class="cls-1" x="60.05" y="48">t</tspan><tspan class="cls-16" x="64.49" y="48">er e</tspan><tspan class="cls-9" x="86.34" y="48">a</tspan><tspan class="cls-2" x="93.02" y="48">t</tspan><tspan class="cls-15" x="97.46" y="48">en in the diet, while the daily inta</tspan><tspan class="cls-22" x="287.32" y="48">k</tspan><tspan class="cls-16" x="293.7" y="48">e of c</tspan><tspan class="cls-4" x="325.6" y="48">a</tspan><tspan class="cls-16" x="332.28" y="48">ttle is 8.2 </tspan><tspan class="cls-2" x="0" y="64">t</tspan><tspan class="cls-16" x="4.44" y="64">o 12.3 </tspan><tspan class="cls-22" x="40.17" y="64">k</tspan><tspan class="cls-16" x="46.56" y="64">g.</tspan></text>
      </g>
    </g>
  </g>
</svg>