<?xml version="1.0" encoding="UTF-8"?>
<svg id="_圖層_2" data-name="圖層 2" xmlns="http://www.w3.org/2000/svg" viewBox="0 0 52.99 53">
  <defs>
    <style>
      .cls-1, .cls-2 {
        fill: #fff;
      }

      .cls-2 {
        font-family: Gotham-Medium, Gotham;
        font-size: 8px;
        letter-spacing: -.03em;
      }
    </style>
  </defs>
  <g id="_指标" data-name="指标">
    <text class="cls-2" transform="translate(14.2 30.06)"><tspan x="0" y="0">HOME</tspan></text>
    <path class="cls-1" d="M26.49,1.5c16.47,0,29.28,16.01,23.66,33.29-2.36,7.25-8.12,13.01-15.36,15.36-2.82,.92-5.6,1.34-8.29,1.34C10.02,51.5-2.78,35.49,2.83,18.21,5.19,10.96,10.95,5.2,18.2,2.84c2.82-.92,5.61-1.34,8.3-1.34m0-1.5h0c-2.92,0-5.87,.48-8.76,1.42C10.02,3.93,3.91,10.03,1.41,17.75-1.35,26.22-.02,35.08,5.04,42.04c4.98,6.86,13,10.96,21.45,10.96,2.92,0,5.87-.48,8.76-1.42,7.71-2.51,13.82-8.61,16.33-16.33,2.76-8.47,1.43-17.33-3.63-24.3C42.96,4.1,34.94,0,26.49,0h0Z"/>
  </g>
</svg>