<svg xmlns="http://www.w3.org/2000/svg" viewBox="0 0 35.16 35.16"><defs><style>.cls-1,.cls-2{fill:#10e7a3;}.cls-2{font-size:7.28px;font-family:AlibabaPuHuiTiM-GBpc-EUC-H, Alibaba PuHuiTi;}.cls-3{font-size:4.33px;letter-spacing:0em;}</style></defs><g id="圖層_2" data-name="圖層 2"><g id="指标"><path class="cls-1" d="M17.58,34.58a17,17,0,1,1,17-17A17,17,0,0,1,17.58,34.58Zm0-33.69A16.69,16.69,0,1,0,34.27,17.58,16.71,16.71,0,0,0,17.58.89Z"/><path class="cls-1" d="M17.58,35.16A17.58,17.58,0,1,1,35.16,17.58,17.6,17.6,0,0,1,17.58,35.16Zm0-33.68a16.1,16.1,0,1,0,16.11,16.1A16.12,16.12,0,0,0,17.58,1.48Z"/><text class="cls-2" transform="translate(11.64 15.05)">CH<tspan class="cls-3" x="9.66" y="0">4</tspan><tspan x="-5.31" y="9">CLEAN</tspan></text></g></g></svg>