<?xml version="1.0" encoding="UTF-8"?>
<svg id="_圖層_2" data-name="圖層 2" xmlns="http://www.w3.org/2000/svg" viewBox="0 0 52.99 53">
  <defs>
    <style>
      .cls-1 {
        fill: #fff;
      }
    </style>
  </defs>
  <g id="_指标" data-name="指标">
    <g>
      <path class="cls-1" d="M25.6,17.7h1.79s.04,.02,.04,.04v7.81s.02,.04,.04,.04h7.52s.04,.02,.04,.04v1.67s-.02,.04-.04,.04h-7.52s-.04,.02-.04,.04v7.87s-.02,.04-.04,.04h-1.79s-.04-.02-.04-.04v-7.87s-.02-.04-.04-.04h-7.52s-.04-.02-.04-.04v-1.67s.02-.04,.04-.04h7.52s.04-.02,.04-.04v-7.81s.02-.04,.04-.04Z"/>
      <path class="cls-1" d="M28.21,36.13h-3.44s-.04-.02-.04-.04v-7.87s-.02-.04-.04-.04h-7.52s-.04-.02-.04-.04v-3.32s.02-.04,.04-.04h7.52s.04-.02,.04-.04v-7.81s.02-.04,.04-.04h3.44s.04,.02,.04,.04v7.81s.02,.04,.04,.04h7.52s.04,.02,.04,.04v3.32s-.02,.04-.04,.04h-7.52s-.04,.02-.04,.04v7.87s-.02,.04-.04,.04Zm-1.83-1.65h.22v-7.91s.02-.04,.04-.04h7.56v-.1h-7.56s-.04-.02-.04-.04v-7.85h-.22v7.85s-.02,.04-.04,.04h-7.56v.1h7.56s.04,.02,.04,.04v7.91Z"/>
    </g>
    <path class="cls-1" d="M26.49,1.5c16.47,0,29.28,16.01,23.66,33.29-2.36,7.25-8.12,13.01-15.36,15.36-2.82,.92-5.6,1.34-8.29,1.34C10.02,51.5-2.78,35.49,2.83,18.21,5.19,10.96,10.95,5.2,18.2,2.84c2.82-.92,5.61-1.34,8.3-1.34m0-1.5h0c-2.92,0-5.87,.48-8.76,1.42C10.02,3.93,3.91,10.03,1.41,17.75-1.35,26.22-.02,35.08,5.04,42.04c4.98,6.86,13,10.96,21.45,10.96,2.92,0,5.87-.48,8.76-1.42,7.71-2.51,13.82-8.61,16.33-16.33,2.76-8.47,1.43-17.33-3.63-24.3C42.96,4.1,34.94,0,26.49,0h0Z"/>
  </g>
</svg>