<?xml version="1.0" encoding="UTF-8"?>
<svg id="_圖層_2" data-name="圖層 2" xmlns="http://www.w3.org/2000/svg" viewBox="0 0 48.01 48">
  <defs>
    <style>
      .cls-1, .cls-2 {
        fill: #fff;
      }

      .cls-3 {
        letter-spacing: -.02em;
      }

      .cls-4 {
        letter-spacing: -.03em;
      }

      .cls-5 {
        letter-spacing: -.04em;
      }

      .cls-2 {
        font-family: Gotham-Medium, Gotham;
        font-size: 8px;
      }
    </style>
  </defs>
  <g id="_指标" data-name="指标">
    <g>
      <path class="cls-1" d="M23.98,1.5c1.4,0,2.82,.13,4.25,.4,12.2,2.33,20.2,14.12,17.87,26.32-2.06,10.78-11.49,18.28-22.07,18.28-1.4,0-2.82-.13-4.25-.4C7.58,43.76-.43,31.98,1.91,19.78,3.97,9,13.4,1.5,23.98,1.5m0-1.5h0C12.5,0,2.59,8.2,.43,19.49c-1.2,6.3,.12,12.68,3.72,17.99,3.6,5.3,9.05,8.89,15.35,10.09,1.5,.29,3.02,.43,4.53,.43,11.48,0,21.38-8.2,23.54-19.49,1.2-6.3-.12-12.68-3.72-17.99C40.25,5.22,34.8,1.63,28.51,.43c-1.5-.29-3.02-.43-4.53-.43h0Z"/>
      <text class="cls-2" transform="translate(6.95 27.56)"><tspan class="cls-3" x="0" y="0">MI</tspan><tspan class="cls-5" x="9.08" y="0">S</tspan><tspan class="cls-4" x="13.92" y="0">SION</tspan></text>
    </g>
  </g>
</svg>