<svg xmlns="http://www.w3.org/2000/svg" viewBox="0 0 205.99 205.99"><defs><style>.cls-1{isolation:isolate;}.cls-14,.cls-2{fill:#10e7a3;}.cls-2{opacity:0.2;}.cls-3,.cls-9{font-size:11px;}.cls-15,.cls-17,.cls-18,.cls-3,.cls-9{fill:#fff;font-family:Gotham-Medium, Gotham;font-weight:500;}.cls-10,.cls-3{letter-spacing:-0.02em;}.cls-4{letter-spacing:-0.05em;}.cls-5{letter-spacing:-0.03em;}.cls-6{letter-spacing:-0.06em;}.cls-7{letter-spacing:-0.05em;}.cls-8{letter-spacing:-0.13em;}.cls-9{letter-spacing:-0.04em;}.cls-11{letter-spacing:-0.03em;}.cls-12{fill:#beffff;}.cls-13{fill:none;stroke:#beffff;stroke-miterlimit:10;stroke-width:0.5px;}.cls-14{mix-blend-mode:screen;}.cls-15,.cls-17,.cls-18{font-size:4.55px;}.cls-15,.cls-22{letter-spacing:-0.03em;}.cls-16{letter-spacing:-0.04em;}.cls-17,.cls-20{letter-spacing:-0.02em;}.cls-18,.cls-21{letter-spacing:-0.04em;}.cls-19{letter-spacing:-0.11em;}.cls-23{letter-spacing:-0.13em;}</style></defs><g class="cls-1"><g id="圖層_2" data-name="圖層 2"><g id="场景"><circle class="cls-2" cx="103" cy="103" r="103"/><text class="cls-3" transform="translate(52.34 31.89)">Name<tspan class="cls-4"><tspan x="0" y="22">A</tspan><tspan class="cls-5" x="8.14" y="22">ge </tspan></tspan><tspan x="0" y="44">S</tspan><tspan class="cls-6" x="6.77" y="44">e</tspan><tspan x="12.8" y="44">x</tspan><tspan x="0" y="66">N</tspan><tspan class="cls-7" x="8.42" y="66">o</tspan><tspan x="15.15" y="66">. </tspan></text><text class="cls-3" transform="translate(105.59 31.89)">MoMo</text><text class="cls-3" transform="translate(105.59 53.73)">1 <tspan class="cls-8" x="7.11" y="0">Y</tspan><tspan class="cls-5" x="13.5" y="0">ear</tspan></text><text class="cls-9" transform="translate(105.59 75.89)">F<tspan class="cls-10" x="6.78" y="0">emale</tspan></text><text class="cls-3" transform="translate(105.59 98.05)">FS 2<tspan class="cls-11" x="23.2" y="0">0</tspan><tspan x="30.78" y="0">22</tspan><tspan class="cls-11" x="43.71" y="0">0</tspan><tspan x="51.29" y="0">215</tspan></text><path class="cls-12" d="M122.55,187.2H86.46a.29.29,0,0,1-.24-.14l-18-31.25a.26.26,0,0,1,0-.27l18-31.25a.27.27,0,0,1,.24-.14h36.09a.27.27,0,0,1,.23.14l18,31.25a.26.26,0,0,1,0,.27l-18,31.25A.29.29,0,0,1,122.55,187.2Zm-35.93-.55h35.77l17.88-31-17.88-31H86.62l-17.88,31Z"/><line class="cls-13" x1="86.46" y1="124.7" x2="122.39" y2="186.65"/><line class="cls-13" x1="140.27" y1="155.67" x2="68.74" y2="155.67"/><line class="cls-13" x1="122.39" y1="124.7" x2="86.62" y2="186.65"/><polygon class="cls-14" points="98.59 145.62 78.65 155.67 89.52 181.63 118.35 179.65 135.66 155.67 115.31 136.96 98.59 145.62"/><text class="cls-15" transform="translate(112.8 121.04)">THIR<tspan class="cls-16" x="10.67" y="0">S</tspan><tspan x="13.4" y="0">TY</tspan></text><text class="cls-17" transform="translate(76.55 121.04)">HUNGER</text><text class="cls-17" transform="translate(115.1 193.08)">MOOD</text><text class="cls-18" transform="translate(78.63 193.08)">S<tspan class="cls-19" x="2.73" y="0">T</tspan><tspan class="cls-20" x="5.15" y="0">AND</tspan></text><text class="cls-17" transform="translate(53.79 157.21)">RE<tspan class="cls-21" x="6.11" y="0">S</tspan><tspan class="cls-22" x="8.83" y="0">T</tspan></text><text class="cls-17" transform="translate(144.67 157.21)">HEA<tspan class="cls-23" x="9.75" y="0">L</tspan><tspan x="12" y="0">TH</tspan></text></g></g></g></svg>