<svg xmlns="http://www.w3.org/2000/svg" viewBox="0 0 205.99 205.99"><defs><style>.cls-1,.cls-2{fill:#ff5e17;}.cls-1{opacity:0.2;}.cls-3{font-size:11px;letter-spacing:-0.02em;}.cls-11,.cls-13,.cls-14,.cls-3{fill:#fff;font-family:Gotham-Medium, Gotham;font-weight:500;}.cls-4{letter-spacing:-0.05em;}.cls-5{letter-spacing:-0.03em;}.cls-6{letter-spacing:-0.06em;}.cls-7{letter-spacing:-0.05em;}.cls-8{letter-spacing:-0.13em;}.cls-9{letter-spacing:-0.03em;}.cls-10{fill:#ffc9bb;}.cls-11,.cls-13,.cls-14{font-size:4.55px;}.cls-11,.cls-18{letter-spacing:-0.03em;}.cls-12{letter-spacing:-0.04em;}.cls-13,.cls-16{letter-spacing:-0.02em;}.cls-14,.cls-17{letter-spacing:-0.04em;}.cls-15{letter-spacing:-0.11em;}.cls-19{letter-spacing:-0.13em;}</style></defs><g id="圖層_2" data-name="圖層 2"><g id="场景"><circle class="cls-1" cx="103" cy="103" r="103"/><polygon class="cls-2" points="90.57 131.78 92.39 155.67 89.52 181.63 110.92 166.88 114.32 155.67 120.37 128.19 90.57 131.78"/><text class="cls-3" transform="translate(52.34 31.89)">Name<tspan class="cls-4"><tspan x="0" y="22">A</tspan><tspan class="cls-5" x="8.14" y="22">ge </tspan></tspan><tspan x="0" y="44">S</tspan><tspan class="cls-6" x="6.77" y="44">e</tspan><tspan x="12.8" y="44">x</tspan><tspan x="0" y="66">N</tspan><tspan class="cls-7" x="8.42" y="66">o</tspan><tspan x="15.15" y="66">. </tspan></text><text class="cls-3" transform="translate(105.59 31.89)">Mermer</text><text class="cls-3" transform="translate(105.59 53.73)">A Half <tspan class="cls-8" x="35.46" y="0">Y</tspan><tspan class="cls-5" x="41.85" y="0">ears</tspan></text><text class="cls-3" transform="translate(105.59 75.89)">Male</text><text class="cls-3" transform="translate(105.59 98.05)">FS 2<tspan class="cls-9" x="23.2" y="0">0</tspan><tspan x="30.78" y="0">22</tspan><tspan class="cls-9" x="43.71" y="0">0</tspan><tspan x="51.29" y="0">215</tspan></text><path class="cls-10" d="M122.55,187.2H86.46a.29.29,0,0,1-.24-.14l-18-31.25a.26.26,0,0,1,0-.27l18-31.25a.27.27,0,0,1,.24-.14h36.09a.27.27,0,0,1,.23.14l18,31.25a.26.26,0,0,1,0,.27l-18,31.25A.29.29,0,0,1,122.55,187.2Zm-35.93-.55h35.77l17.88-31-17.88-31H86.62l-17.88,31Z"/><polygon class="cls-10" points="122.17 186.77 86.25 124.82 86.68 124.57 122.6 186.52 122.17 186.77"/><rect class="cls-10" x="68.73" y="155.42" width="71.54" height="0.5"/><rect class="cls-10" x="68.73" y="155.42" width="71.54" height="0.5" transform="translate(-82.56 168.45) rotate(-60.03)"/><text class="cls-11" transform="translate(112.8 121.04)">THIR<tspan class="cls-12" x="10.67" y="0">S</tspan><tspan x="13.4" y="0">TY</tspan></text><text class="cls-13" transform="translate(76.55 121.04)">HUNGER</text><text class="cls-13" transform="translate(115.1 193.08)">MOOD</text><text class="cls-14" transform="translate(78.63 193.08)">S<tspan class="cls-15" x="2.73" y="0">T</tspan><tspan class="cls-16" x="5.15" y="0">AND</tspan></text><text class="cls-13" transform="translate(53.79 157.21)">RE<tspan class="cls-17" x="6.11" y="0">S</tspan><tspan class="cls-18" x="8.83" y="0">T</tspan></text><text class="cls-13" transform="translate(144.67 157.21)">HEA<tspan class="cls-19" x="9.75" y="0">L</tspan><tspan x="12" y="0">TH</tspan></text></g></g></svg>